# xmcd
# 
# Track frame offsets:
#     150
#     25220
#     57492
#     87260
#     126892
#     157700
#     183047
#     213112
#     241107
#     279775
#     301102
# 
# Disc length: 4382
# 
# Revision: 3
# Processed by: cddbd v1.5.2PL0 Copyright (c) Steve Scherf et al.
# Submitted via: BonkEnc v1.0rc1
# 
DISCID=7b111c0b
DTITLE=Various Artist - Acid Flash Vol. 4 CD 1
DYEAR=1996
DGENRE=Acid
TTITLE0=N-Son-X - Humanoid
TTITLE1=New Moon - I Know What U R Thinking
TTITLE2=Spick And Span - Subway
TTITLE3=DJ Tomcraft - Unicum
TTITLE4=Lumo - One and Only
TTITLE5=TB Turner - Racha
TTITLE6=Nuclear Hyde - Running Man
TTITLE7=Patchwork - Guinean Folks
TTITLE8=Repulsor - Sentimental Circuit
TTITLE9=Framic - The Dark Side Of Light
TTITLE10=D-Fence and Confusion - Destruction
EXTD=YEAR: 1996
EXTT0=
EXTT1=
EXTT2=
EXTT3=
EXTT4=
EXTT5=
EXTT6=
EXTT7=
EXTT8=
EXTT9=
EXTT10=
PLAYORDER=
